<?xml version="1.0" encoding="UTF-8"?>
<svg id="Vrstva_1" xmlns="http://www.w3.org/2000/svg" version="1.1" viewBox="0 0 512 512">
  <!-- Generator: Adobe Illustrator 29.3.1, SVG Export Plug-In . SVG Version: 2.1.0 Build 151)  -->
  <defs>
    <style>
      .st0 {
        stroke-linecap: round;
      }

      .st0, .st1 {
        fill: none;
        stroke-linejoin: round;
        stroke-width: 32px;
      }

      .st0, .st1, .st2 {
        stroke: currentColor;
      }

      .st2 {
        fill: currentColor;
        stroke-miterlimit: 10;
      }
    </style>
  </defs>
  <path class="st1" d="M368,415.9V72c0-13.2-10.8-24-24-24H72c-13.2,0-24,10.8-24,24v352c0,22.1,17.9,39.9,40,40h328"/>
  <path class="st1" d="M416,464h0c-26.5,0-48-21.5-48-48V128h72c13.3,0,24,10.7,24,24v264c0,26.5-21.5,48-48,48Z"/>
  <line class="st0" x1="240" y1="128" x2="304" y2="128"/>
  <line class="st0" x1="240" y1="192" x2="304" y2="192"/>
  <line class="st0" x1="112" y1="256" x2="304" y2="256"/>
  <line class="st0" x1="112" y1="320" x2="304" y2="320"/>
  <line class="st0" x1="112" y1="384" x2="304" y2="384"/>
  <path class="st2" d="M176,208h-64c-8.8,0-16-7.2-16-16v-64c0-8.8,7.2-16,16-16h64c8.8,0,16,7.2,16,16v64c0,8.8-7.2,16-16,16Z"/>
</svg>
